<svg width="30" height="26" viewBox="0 0 30 26" fill="none" xmlns="http://www.w3.org/2000/svg">
<path d="M25.182 25.4913H4.81833C2.16133 25.4913 0 23.0418 0 20.0305V5.46078C0 2.44989 2.16167 0 4.81833 0H25.182C27.8387 0 30 2.44989 30 5.46078V20.0305C30 23.0418 27.8387 25.4913 25.182 25.4913ZM4.81833 1.59687C2.93833 1.59687 1.409 3.33011 1.409 5.46078V20.0305C1.409 22.1612 2.93833 23.8948 4.81833 23.8948H25.182C27.062 23.8948 28.5913 22.1612 28.5913 20.0305V5.46078C28.5913 3.33011 27.062 1.59687 25.182 1.59687H4.81833Z" fill="#FFFDF5"/>
<path d="M3.6807 5.53698C7.28203 9.51422 10.8834 13.4911 14.4847 17.4683C15.156 18.2095 16.1864 17.0445 15.514 16.3018C11.9127 12.3249 8.31136 8.34765 4.71003 4.37078C4.0387 3.6292 3.00836 4.79465 3.6807 5.53698Z" fill="#FFFDF5"/>
<path d="M15.5146 17.4683C19.116 13.4914 22.7173 9.51417 26.3186 5.53731C26.9906 4.79497 25.961 3.62915 25.2893 4.37073C21.688 8.3476 18.0866 12.3248 14.4853 16.3017C13.8133 17.044 14.843 18.2099 15.5146 17.4683Z" fill="#FFFDF5"/>
<path d="M26.2791 20.2836C23.8827 17.7079 21.4861 15.1326 19.0897 12.5569C18.4101 11.8266 17.3791 12.991 18.0604 13.7235C20.4567 16.2992 22.8534 18.8745 25.2497 21.4501C25.9294 22.1804 26.9604 21.0157 26.2791 20.2836Z" fill="#FFFDF5"/>
<path d="M4.81522 21.4498C7.21156 18.8741 9.60822 16.2988 12.0046 13.7231C12.6856 12.9909 11.6552 11.8259 10.9752 12.5565C8.57889 15.1322 6.18222 17.7075 3.78589 20.2832C3.10489 21.0153 4.13522 22.1808 4.81522 21.4498Z" fill="#FFFDF5"/>
</svg>
